<?xml version="1.0" encoding="UTF-8"?>
<svg xmlns="http://www.w3.org/2000/svg" viewBox="0 0 220 180" role="img" aria-labelledby="title desc">
  <title id="title">Pumpaj Heart Logo</title>
  <desc id="desc">Red heart balloon with Pumpaj text and a pump handle.</desc>
  <defs>
    <linearGradient id="heartGradient" x1="0%" x2="100%" y1="0%" y2="100%">
      <stop offset="0%" stop-color="#ff6b6b" />
      <stop offset="60%" stop-color="#ef233c" />
      <stop offset="100%" stop-color="#c1121f" />
    </linearGradient>
    <linearGradient id="strokeGradient" x1="0%" x2="100%" y1="0%" y2="100%">
      <stop offset="0%" stop-color="#ffffff" stop-opacity="0.9" />
      <stop offset="100%" stop-color="#ffffff" stop-opacity="0.3" />
    </linearGradient>
  </defs>
  <rect width="220" height="180" fill="none" />
  <g transform="translate(10,6)">
    <path d="M96 18 C88 3 56 0 36 22 C17 44 20 79 36 104 C52 129 80 146 96 154 C112 146 140 129 156 104 C172 79 175 44 156 22 C136 0 104 3 96 18 Z" fill="url(#heartGradient)" stroke="#8f101b" stroke-width="6" stroke-linejoin="round" />
    <path d="M96 30 C90 16 64 14 50 32 C35 50 37 78 50 96 C63 114 82 126 96 132 C110 126 129 114 142 96 C155 78 157 50 142 32 C128 14 102 16 96 30 Z" fill="#ef2d3c" opacity="0.4" />
    <path d="M72 42 C64 30 46 30 36 46 C27 61 29 83 44 104 C58 122 78 134 96 141" fill="none" stroke="#ffffff" stroke-opacity="0.35" stroke-width="6" stroke-linecap="round" />
    <rect x="30" y="64" width="132" height="62" rx="18" ry="18" fill="rgba(255,255,255,0.92)" stroke="rgba(0,0,0,0.08)" stroke-width="2" />
    <text x="96" y="108" text-anchor="middle" font-family="'Poppins', 'Segoe UI', sans-serif" font-weight="800" font-size="40" letter-spacing="4" fill="#d71920" paint-order="stroke" stroke="white" stroke-width="5" stroke-linejoin="round">PUMPAJ</text>
    <text x="96" y="108" text-anchor="middle" font-family="'Poppins', 'Segoe UI', sans-serif" font-weight="800" font-size="40" letter-spacing="4" fill="#d71920">PUMPAJ</text>
    <g transform="translate(76,130)">
      <rect x="0" y="0" width="40" height="32" rx="6" fill="#262626" />
      <rect x="10" y="6" width="20" height="20" fill="#ffffff" rx="2" />
      <rect x="10" y="6" width="20" height="6.8" fill="#f44336" />
      <rect x="10" y="20.2" width="20" height="6.8" fill="#1d4ed8" />
      <rect x="-6" y="-24" width="52" height="8" rx="4" fill="#d71920" />
      <circle cx="-6" cy="-20" r="5.2" fill="#d71920" />
      <circle cx="46" cy="-20" r="5.2" fill="#d71920" />
      <path d="M20 32 Q48 52 62 80" fill="none" stroke="#b38b59" stroke-width="6" stroke-linecap="round" />
    </g>
  </g>
</svg>
