<?xml version="1.0" encoding="UTF-8"?>
<svg width="128" height="128" viewBox="0 0 128 128" xmlns="http://www.w3.org/2000/svg">
  <defs>
    <linearGradient id="pumpajGradient" x1="0%" y1="0%" x2="100%" y2="100%">
      <stop offset="0%" stop-color="#3b82f6" />
      <stop offset="50%" stop-color="#8b5cf6" />
      <stop offset="100%" stop-color="#ec4899" />
    </linearGradient>
    <filter id="shadow" x="-20%" y="-20%" width="140%" height="140%">
      <feDropShadow dx="0" dy="6" stdDeviation="8" flood-color="rgba(59,130,246,0.35)" />
    </filter>
  </defs>
  <rect width="128" height="128" rx="32" fill="#0f172a" />
  <path
    d="M64 104c-1.9 0-3.8-.7-5.3-2.1L34.6 78.8c-9.9-9.3-10.3-25.1-0.9-35.2 8.4-9 22.2-9.2 30.7-.5l-.1-.1c8.5-8.7 22.3-8.5 30.7.5 9.4 10.1 9 25.9-.9 35.2L69.3 101.9c-1.5 1.4-3.4 2.1-5.3 2.1z"
    fill="url(#pumpajGradient)"
    filter="url(#shadow)"
  />
  <path
    d="M64 94c-1.2 0-2.3-.4-3.2-1.2L42.1 75.3c-6.6-6.2-6.9-17-0.6-23.9 5.6-6 14.8-6.1 20.5-.3 5.7-5.8 14.9-5.7 20.5.3 6.3 6.9 6 17.7-.6 23.9L67.2 92.8c-.9.8-2 1.2-3.2 1.2z"
    fill="#0f172a"
    opacity="0.35"
  />
</svg>
